inDegrees=no
num_controls=7
num_derivatives=13
num_iterations=82
num_multipliers=7
num_parameters=0
num_slacks=7
num_states=26
objective=0.454587
objective_accelerations=0.045325
objective_balance=0.000826
objective_effort=0.036774
objective_height=0.365568
objective_ligament=0.006094
solver_duration=911.016196
status=Solve_Succeeded
success=true
DataType=double
version=3
OpenSimVersion=4.5
endheader
time	/jointset/ground_pelvis/pelvis_tilt/value	/jointset/ground_pelvis/pelvis_tx/value	/jointset/ground_pelvis/pelvis_ty/value	/jointset/hip_r/hip_flexion_r/value	/jointset/hip_r/hip_adduction_r/value	/jointset/hip_r/hip_rotation_r/value	/jointset/back/lumbar_extension/value	/jointset/patellofemoral_r/patellar_flexion_r/value	/jointset/knee_r/knee_flexion_r/value	/jointset/knee_r/knee_adduction_r/value	/jointset/knee_r/knee_rotation_r/value	/jointset/ankle_r/ankle_angle_r/value	/jointset/subtalar_r/subtalar_angle_r/value	/jointset/ground_pelvis/pelvis_tilt/speed	/jointset/ground_pelvis/pelvis_tx/speed	/jointset/ground_pelvis/pelvis_ty/speed	/jointset/hip_r/hip_flexion_r/speed	/jointset/hip_r/hip_adduction_r/speed	/jointset/hip_r/hip_rotation_r/speed	/jointset/back/lumbar_extension/speed	/jointset/patellofemoral_r/patellar_flexion_r/speed	/jointset/knee_r/knee_flexion_r/speed	/jointset/knee_r/knee_adduction_r/speed	/jointset/knee_r/knee_rotation_r/speed	/jointset/ankle_r/ankle_angle_r/speed	/jointset/subtalar_r/subtalar_angle_r/speed	/forceset/tau_hip_flexion_r	/forceset/tau_hip_adduction_r	/forceset/tau_hip_rotation_r	/forceset/tau_knee_flexion_r	/forceset/tau_ankle_angle_r	/forceset/tau_subtalar_angle_r	/forceset/tau_lumbar_extension	lambda_cid13_p0	lambda_cid14_p0	lambda_cid14_p1	lambda_cid14_p2	lambda_cid14_p3	lambda_cid14_p4	lambda_cid14_p5	/jointset/ground_pelvis/pelvis_tilt/accel	/jointset/ground_pelvis/pelvis_tx/accel	/jointset/ground_pelvis/pelvis_ty/accel	/jointset/hip_r/hip_flexion_r/accel	/jointset/hip_r/hip_adduction_r/accel	/jointset/hip_r/hip_rotation_r/accel	/jointset/back/lumbar_extension/accel	/jointset/patellofemoral_r/patellar_flexion_r/accel	/jointset/knee_r/knee_flexion_r/accel	/jointset/knee_r/knee_adduction_r/accel	/jointset/knee_r/knee_rotation_r/accel	/jointset/ankle_r/ankle_angle_r/accel	/jointset/subtalar_r/subtalar_angle_r/accel	gamma_cid13_p0	gamma_cid14_p0	gamma_cid14_p1	gamma_cid14_p2	gamma_cid14_p3	gamma_cid14_p4	gamma_cid14_p5
0	-0.006456986719559252	0.1313301570814127	0.933414009021726	0.1934211968871041	-0.2278382495696135	-0.2399638790168803	-0.2903787966825928	0.2311786273363388	0.2311786273363406	0.131868239330872	0.1714817778767698	0.089344008118978	0.06427121573340201	0	0	0	0	0	0	0	0	0	0	0	0	0	0.09459263374752531	-0.03425390422549116	0.004206386357560697	-0.2208297997819435	0.09262549646470299	-0.09851819062305524	-0.01898791777118869	-29.87704452202105	-17.13389197545476	-40.61967727582801	0.9961004784708786	9.326486651965531	-609.6531717325577	28.86559125932108	-1.58775233936788	-1.890326321962867	-0.8309150288845314	9.527116760466846	-0.336879241168427	2.474694975318085	-6.247725592539958	9.997223585488092	9.997223585487868	-1.843122874844003	0.342982102657115	2.549219603915799	0.2890944776473515	3.678731313033653e-08	2.968991193206733e-08	-2.830815563094721e-07	1.650099187032063e-07	-5.241147786156991e-10	1.710149959095183e-07	-2.096268335368978e-07
0.01	-0.006531215424498247	0.1312383818844253	0.9333735771784227	0.1938836308876665	-0.2278539585316978	-0.2398384742967518	-0.2906920826543589	0.2316688876495688	0.2316688876495827	0.1317764762530938	0.171494069674628	0.08947099630559799	0.06428691304878789	-0.01484839734600742	-0.01810508088816357	-0.008068780464714494	0.09194377116017785	-0.003166519680548078	0.02501552120526667	-0.06220309706477836	0.09762792414201156	0.09762792414200751	-0.01817677867688841	0.002411889585441074	0.02548718983820905	0.003136089056386072	0.09655733730694274	-0.05144753677589645	0.003790019890350203	-0.2305391683666925	0.1058891940985942	-0.08881373860648084	-0.01901939605146986	-29.88226727552743	-12.35078134122812	-35.6005015794303	0.2335490114037521	3.728510191809183	-611.2145348280926	40.35218355475583	-1.433785334254685	-1.733105300708973	-0.7921871228711997	8.946552199499527	-0.3102636565839882	2.505203854098423	-6.138487170181341	9.581948695184163	9.581948695183577	-1.778610955763156	0.1833563536706058	2.561909108976318	0.3253346889410638	4.867473957460774e-08	4.627955982808632e-09	-3.856259396526764e-07	1.773398422628412e-07	3.118360534617847e-08	1.591336292322203e-08	-2.606934641879138e-07
0.02	-0.006754008483304251	0.130973054612863	0.9332529920169511	0.1952492115809696	-0.2279020777556028	-0.2394648697323748	-0.2916137766781194	0.2331227015775632	0.2331227015775632	0.1315082142702212	0.1715290931617362	0.08985554447764216	0.064333864968599	-0.02971287077351424	-0.03471041491497882	-0.01603066363368269	0.1806293385486036	-0.0064820523645303	0.04963996884923588	-0.1216816103989381	0.1927107229490805	0.1927107229490694	-0.03529978101985051	0.004546337858203859	0.05151199708453139	0.006250920885043739	0.09852204086633397	-0.0686411693263189	0.003373653422966254	-0.2402485369514413	0.1191528917324773	-0.07910928658992725	-0.01905087433176307	-29.89749095853789	-7.490795734581999	-30.58387175576529	-0.5103116179513872	-1.851653035575105	-611.5589144130868	51.60745366144802	-1.590967555667748	-1.59037694969322	-0.8095355697352695	8.875476006116433	-0.3666818418552549	2.396480263058592	-5.702808846416238	9.488198518499551	9.488198518498731	-1.632367608058745	0.2874938401214553	2.656743085538433	0.2848430321016653	6.056216601887895e-08	-2.043399996645006e-08	-4.881703229958807e-07	1.896697658224761e-07	6.289132547097264e-08	-1.391882700630742e-07	-3.117600948389298e-07
0.03	-0.007125110612674954	0.1305472852371689	0.933053112908875	0.1974871602426713	-0.2279840549037616	-0.2388479859890227	-0.2931169297110154	0.2355144900600872	0.2355144900600852	0.1310740918969077	0.1715849730975169	0.09050048724946437	0.06441118607912916	-0.04443218024400127	-0.05038137664571795	-0.02394152781926487	0.2665547465755593	-0.009913947619879406	0.07364152158228941	-0.1785638170910112	0.2851926930564985	0.2851926930564679	-0.05137168024997896	0.006589217709965651	0.07731713533153486	0.00916761202359254	0.09282855580446266	-0.06764039439447556	0.003967888847999438	-0.2340389195453652	0.1102191042320061	-0.07592354699187112	-0.01440592900237093	-29.92201011348995	-10.1985970632089	-29.549554162764	-0.8178392228428941	-0.4597639001759536	-612.0290427046223	52.78617397826805	-1.401103375191665	-1.546130541713317	-0.7813457829533886	8.390225889980591	-0.331559389639042	2.387750613714952	-5.623149717216598	9.060042021514027	9.060042021512052	-1.571707853719659	0.1566624610130111	2.518493065113774	0.2881750704942924	6.873951493028241e-08	-3.193629428627524e-08	-5.5476557182833e-07	1.914891379732684e-07	7.744927108527292e-08	-2.308439791916175e-07	-3.366903956432124e-07
0.04	-0.007641143983240457	0.1299666712927775	0.9327742283709463	0.2005721935224437	-0.2281003742089278	-0.2379939351512839	-0.2951773494381547	0.2388174673966137	0.2388174673966136	0.130483829176656	0.1716600773124786	0.09139870017792263	0.06451629268419735	-0.05869911901258734	-0.06567932865443919	-0.03183174960422281	0.3500462621623278	-0.01335048376580276	0.09707338772679279	-0.2331349492476332	0.3749484937499587	0.3749484937499312	-0.06652785040929843	0.008391193694104919	0.1021660284118362	0.01180801979265313	0.08713507074260733	-0.06663961946262568	0.004562124273047295	-0.2278293021392832	0.1012853167315394	-0.07273780739380592	-0.009760983672968281	-29.95461752601518	-12.83554142443158	-28.51758666457275	-1.108135279408971	0.9348679598998566	-611.3876938450143	53.75829714855386	-1.500493415287535	-1.515775005289659	-0.8054070896104194	8.388697518079001	-0.3676100199701032	2.28254294534856	-5.240593939326026	8.942964635707989	8.942964635711679	-1.449221793896952	0.2393130665969478	2.465494052197974	0.2295863582040172	7.684036739770919e-08	-4.315900795394715e-08	-6.206196013925164e-07	1.930917977238785e-07	9.16536131014187e-08	-3.211915249416503e-07	-3.610818030485934e-07
0.05	-0.008298182016873299	0.1292353322071495	0.9324162968104942	0.2044803342220603	-0.228251148570118	-0.2369087335996425	-0.2977713263193048	0.2430047158870738	0.243004715887083	0.1297467896663143	0.1717523196786165	0.09254115686131802	0.06464650084630884	-0.07264686421509087	-0.08048584522339629	-0.0397675117906337	0.431146399984473	-0.01679674115822593	0.119857009016712	-0.2852642183355633	0.4620482446323204	0.4620482446322863	-0.08073010524391333	0.01001688218006771	0.1262149512401723	0.0142125213395255	0.08240063322001577	-0.06165108437952041	0.004941710351636631	-0.2250761763267982	0.09854339380718918	-0.07387895217850099	-0.005688519522182756	-29.99398147312095	-13.72711753637884	-29.20871381020153	-0.9529247699037945	0.8899348437602423	-611.0363700056956	51.30218454233635	-1.332665315470033	-1.447675050081037	-0.7896681472051604	7.90534987246281	-0.332029909669554	2.25983622167863	-5.139662096505686	8.525520924371131	8.525520924367855	-1.383314031687367	0.1181820211269491	2.358046706079764	0.2426446497685792	7.341403240817945e-08	-5.532520363148117e-08	-6.077929693447045e-07	1.445815062397298e-07	9.826786882867429e-08	-3.99816387541416e-07	-3.218648304439663e-07
